HIERARCHY
ROOT hip
{
  OFFSET 0 0 0
  CHANNELS 6 Xposition Yposition Zposition Zrotation Yrotation Xrotation
  JOINT abdomen
  {
    OFFSET 0 20.6881 -0.73152
    CHANNELS 3 Zrotation Xrotation Yrotation
    JOINT chest
    {
      OFFSET 0 11.7043 -0.48768
      CHANNELS 3 Zrotation Xrotation Yrotation
      JOINT neck
      {
        OFFSET 0 22.1894 -2.19456
        CHANNELS 3 Zrotation Xrotation Yrotation
        JOINT head
        {
          OFFSET -0.24384 7.07133 1.2192
          CHANNELS 3 Zrotation Xrotation Yrotation
          JOINT leftEye
          {
            OFFSET 4.14528 8.04674 8.04672
            CHANNELS 3 Zrotation Xrotation Yrotation
            End Site
            {
              OFFSET 1 0 0
            }
          }
          JOINT rightEye
          {
            OFFSET -3.6576 8.04674 8.04672
            CHANNELS 3 Zrotation Xrotation Yrotation
            End Site
            {
              OFFSET 1 0 0
            }
          }
        }
      }
      JOINT rCollar
      {
        OFFSET -2.68224 19.2634 -4.8768
        CHANNELS 3 Zrotation Xrotation Yrotation
        JOINT rShldr
        {
          OFFSET -8.77824 -1.95073 1.46304
          CHANNELS 3 Zrotation Xrotation Yrotation
          JOINT rForeArm
          {
            OFFSET -28.1742 -1.7115 0.48768
            CHANNELS 3 Zrotation Xrotation Yrotation
            JOINT rHand
            {
              OFFSET -22.5879 0.773209 7.07136
              CHANNELS 3 Zrotation Xrotation Yrotation
              JOINT rThumb1
              {
                OFFSET -1.2192 -0.487915 3.41376
                CHANNELS 3 Zrotation Xrotation Yrotation
                JOINT rThumb2
                {
                  OFFSET -3.37035 -0.52449 3.41376
                  CHANNELS 3 Zrotation Xrotation Yrotation
                  End Site
                  {
                    OFFSET -1.78271 -1.18214 1.43049
                  }
                }
              }
              JOINT rIndex1
              {
                OFFSET -7.75947 0.938293 5.60832
                CHANNELS 3 Zrotation Xrotation Yrotation
                JOINT rIndex2
                {
                  OFFSET -2.54057 -0.884171 1.56538
                  CHANNELS 3 Zrotation Xrotation Yrotation
                  End Site
                  {
                    OFFSET -1.62519 -0.234802 1.16502
                  }
                }
              }
              JOINT rMid1
              {
                OFFSET -8.24714 1.18213 3.41376
                CHANNELS 3 Zrotation Xrotation Yrotation
                JOINT rMid2
                {
                  OFFSET -3.10165 -0.590103 1.0647
                  CHANNELS 3 Zrotation Xrotation Yrotation
                  End Site
                  {
                    OFFSET -2.48547 -0.328903 0.83742
                  }
                }
              }
              JOINT rRing1
              {
                OFFSET -8.82822 0.546677 1.51678
                CHANNELS 3 Zrotation Xrotation Yrotation
                JOINT rRing2
                {
                  OFFSET -2.60934 -0.819778 -0.0198488
                  CHANNELS 3 Zrotation Xrotation Yrotation
                  End Site
                  {
                    OFFSET -2.33842 -0.294052 0.168128
                  }
                }
              }
              JOINT rPinky1
              {
                OFFSET -8.27202 -0.0477905 -0.4584
                CHANNELS 3 Zrotation Xrotation Yrotation
                JOINT rPinky2
                {
                  OFFSET -1.82734 -0.647385 -0.700984
                  CHANNELS 3 Zrotation Xrotation Yrotation
                  End Site
                  {
                    OFFSET -1.69225 -0.51767 -0.607171
                  }
                }
              }
            }
          }
        }
      }
      JOINT lCollar
      {
        OFFSET 2.68224 19.2634 -4.8768
        CHANNELS 3 Zrotation Xrotation Yrotation
        JOINT lShldr
        {
          OFFSET 8.77824 -1.95073 1.46304
          CHANNELS 3 Zrotation Xrotation Yrotation
          JOINT lForeArm
          {
            OFFSET 28.1742 -1.7115 0.48768
            CHANNELS 3 Zrotation Xrotation Yrotation
            JOINT lHand
            {
              OFFSET 22.5879 0.773209 7.07136
              CHANNELS 3 Zrotation Xrotation Yrotation
              JOINT lThumb1
              {
                OFFSET 1.2192 -0.487915 3.41376
                CHANNELS 3 Zrotation Xrotation Yrotation
                JOINT lThumb2
                {
                  OFFSET 3.37035 -0.52449 3.41376
                  CHANNELS 3 Zrotation Xrotation Yrotation
                  End Site
                  {
                    OFFSET 1.78271 -1.18214 1.43049
                  }
                }
              }
              JOINT lIndex1
              {
                OFFSET 7.75947 0.938293 5.60832
                CHANNELS 3 Zrotation Xrotation Yrotation
                JOINT lIndex2
                {
                  OFFSET 2.54057 -0.884171 1.56538
                  CHANNELS 3 Zrotation Xrotation Yrotation
                  End Site
                  {
                    OFFSET 1.62519 -0.234802 1.16502
                  }
                }
              }
              JOINT lMid1
              {
                OFFSET 8.24714 1.18213 3.41376
                CHANNELS 3 Zrotation Xrotation Yrotation
                JOINT lMid2
                {
                  OFFSET 3.10165 -0.590103 1.0647
                  CHANNELS 3 Zrotation Xrotation Yrotation
                  End Site
                  {
                    OFFSET 2.48547 -0.328903 0.83742
                  }
                }
              }
              JOINT lRing1
              {
                OFFSET 8.82822 0.546677 1.51678
                CHANNELS 3 Zrotation Xrotation Yrotation
                JOINT lRing2
                {
                  OFFSET 2.60934 -0.819778 -0.0198488
                  CHANNELS 3 Zrotation Xrotation Yrotation
                  End Site
                  {
                    OFFSET 2.33842 -0.294052 0.168128
                  }
                }
              }
              JOINT lPinky1
              {
                OFFSET 8.27202 -0.0477905 -0.4584
                CHANNELS 3 Zrotation Xrotation Yrotation
                JOINT lPinky2
                {
                  OFFSET 1.82734 -0.647385 -0.700984
                  CHANNELS 3 Zrotation Xrotation Yrotation
                  End Site
                  {
                    OFFSET 1.69225 -0.51767 -0.607171
                  }
                }
              }
            }
          }
        }
      }
    }
  }
  JOINT rButtock
  {
    OFFSET -8.77824 4.35084 1.2192
    CHANNELS 3 Zrotation Xrotation Yrotation
    JOINT rThigh
    {
      OFFSET 0 -1.70687 -2.19456
      CHANNELS 3 Zrotation Xrotation Yrotation
      JOINT rShin
      {
        OFFSET 0 -36.8199 0.73152
        CHANNELS 3 Zrotation Xrotation Yrotation
        JOINT rFoot
        {
          OFFSET 0.73152 -45.1104 -5.12064
          CHANNELS 3 Zrotation Xrotation Yrotation
          End Site
          {
            OFFSET -1.1221 -3.69964 12.103
          }
        }
      }
    }
  }
  JOINT lButtock
  {
    OFFSET 8.77824 4.35084 1.2192
    CHANNELS 3 Zrotation Xrotation Yrotation
    JOINT lThigh
    {
      OFFSET 0 -1.70687 -2.19456
      CHANNELS 3 Zrotation Xrotation Yrotation
      JOINT lShin
      {
        OFFSET 0 -36.8199 0.73152
        CHANNELS 3 Zrotation Xrotation Yrotation
        JOINT lFoot
        {
          OFFSET -0.73152 -45.1104 -5.12064
          CHANNELS 3 Zrotation Xrotation Yrotation
          End Site
          {
            OFFSET 1.1221 -3.69964 12.103
          }
        }
      }
    }
  }
}
MOTION
Frames:	4
Frame Time:	0.00833333
-30.9799 84.1002 15.2602 0.0 0.0 0.0 -1.51927 -0.00282943 -0.0413936 -0.418701 0.00102616 -0.0725115 -1.68977e-15 -7.95139e-16 7.45443e-17 -4.76462e-15 3.18055e-15 1.47535e-16 -0.0 0.0 0.0 -0.0 0.0 0.0 -6.97638e-16 -9.47333e-17 1.98785e-16 -1.31178e-14 -1.99406e-15 1.39149e-15 -2.72037e-13 1.27222e-14 2.54444e-14 -3.02676e-12 -4.2356e-13 8.26944e-14 -7.15384e-12 -8.89166e-13 2.13097e-13 -1.23656e-11 -1.53303e-12 3.79281e-13 -7.1479e-12 -8.86182e-13 2.13097e-13 7.73091 5.47488 0.417314 -7.15421e-12 -8.88766e-13 2.25819e-13 2.90554 0.965183 0.102902 -7.14717e-12 -8.89064e-13 2.23434e-13 10.2786 0.731801 0.0259123 -7.16122e-12 -8.88965e-13 2.38542e-13 2.22167 -0.733487 -0.20892 -6.93913e-16 -9.24038e-17 -9.93923e-17 -1.75059e-14 -2.10588e-15 -5.96354e-16 -2.5842e-13 -1.46107e-13 6.36111e-15 -3.03409e-12 -2.66521e-13 1.04958e-13 -7.13824e-12 -8.9313e-13 2.3218e-13 -1.23167e-11 -1.54575e-12 4.0075e-13 -7.14631e-12 -8.90158e-13 2.44903e-13 -7.73091 5.47488 -0.417314 -7.13856e-12 -8.92742e-13 2.3218e-13 -2.90554 0.965183 -0.102902 -7.14376e-12 -8.92643e-13 2.29795e-13 -10.2786 0.731801 -0.0259123 -7.13259e-12 -8.91748e-13 2.16278e-13 -2.22167 -0.733487 0.20892 -2.03217e-16 0.0 -3.88251e-19 -0.64054 -1.92323 -0.00643629 -0.00925465 -2.07856 -0.0764279 -0.512151 3.99733 0.140311 2.03217e-16 0.0 3.88251e-19 -1.66974 -6.49782 0.154697 -0.00231057 6.208 -0.067983 0.534048 0.285489 -0.0665684
-31.2779 81.8447 9.71969 -96.1138 86.296 -78.4182 -0.603588 2.14045 0.807212 1.04374 0.0924179 0.222296 0.651404 -0.278718 -0.497044 -2.29496 7.49239 0.25843 -0.0 0.0 0.0 -0.0 0.0 0.0 2.9367e-14 4.066e-13 8.51047e-16 24.8106 7.86334 8.06094 -2.84318 -1.10244 4.62529 0.143409 -8.41728 -1.13739 -2.12888e-10 -3.395e-10 -6.23127e-10 -3.55286e-10 -5.85288e-10 -1.07941e-09 -2.12883e-10 -3.39497e-10 -6.2313e-10 7.73091 5.47488 0.417314 -2.12888e-10 -3.39499e-10 -6.23117e-10 2.90554 0.965183 0.102902 -2.12881e-10 -3.395e-10 -6.23121e-10 10.2786 0.731801 0.0259123 -2.12894e-10 -3.395e-10 -6.2311e-10 2.22167 -0.733487 -0.20892 2.93836e-14 4.06602e-13 5.5054e-16 -25.0104 21.8621 -8.55404 4.03774 -1.79983 -6.34378 -0.304391 -12.2922 1.58746 -4.48251e-10 -5.18057e-10 6.51164e-10 -7.93233e-10 -8.80314e-10 1.10692e-09 -4.48258e-10 -5.18056e-10 6.51179e-10 -7.73091 5.47488 -0.417314 -4.4825e-10 -5.18056e-10 6.51165e-10 -2.90554 0.965183 -0.102902 -4.48255e-10 -5.18056e-10 6.51164e-10 -10.2786 0.731801 -0.0259123 -4.48247e-10 -5.18055e-10 6.51153e-10 -2.22167 -0.733487 0.20892 -2.03217e-16 0.0 -3.88251e-19 -2.86802 -10.4819 -0.123958 -0.00435707 5.99913 0.0469679 -0.607836 1.63243 -2.81013 2.03217e-16 0.0 3.88251e-19 2.15878 -14.8047 1.5129 -0.0205837 13.5663 -0.210094 0.387321 -2.1566 0.113808
-31.2692 81.8458 9.72286 -95.911 86.2871 -78.2542 0.291297 4.40349 1.71056 2.58623 0.189943 0.534431 1.33707 -0.574034 -1.02307 -4.79506 15.4125 0.544405 -0.0 0.0 0.0 -0.0 0.0 0.0 6.23977e-14 8.50878e-13 1.81391e-15 48.585 15.6558 17.0779 -5.65722 -2.24464 9.52239 -0.0839716 -17.3059 -2.42458 -4.37148e-10 -6.91478e-10 -1.28269e-09 -7.29405e-10 -1.19205e-09 -2.22214e-09 -4.37144e-10 -6.91476e-10 -1.2827e-09 7.73091 5.47488 0.417314 -4.37147e-10 -6.91477e-10 -1.28268e-09 2.90554 0.965183 0.102902 -4.37141e-10 -6.91478e-10 -1.28269e-09 10.2786 0.731801 0.0259123 -4.37152e-10 -6.91478e-10 -1.28268e-09 2.22167 -0.733487 -0.20892 6.24308e-14 8.50879e-13 1.50952e-15 -42.1153 43.1374 -22.6526 7.87856 -3.63091 -13.0745 0.18539 -25.2606 3.52922 -9.18307e-10 -1.07175e-09 1.34659e-09 -1.62551e-09 -1.82153e-09 2.28915e-09 -9.18313e-10 -1.07175e-09 1.34661e-09 -7.73091 5.47488 -0.417314 -9.18306e-10 -1.07175e-09 1.3466e-09 -2.90554 0.965183 -0.102902 -9.1831e-10 -1.07175e-09 1.3466e-09 -10.2786 0.731801 -0.0259123 -9.18305e-10 -1.07175e-09 1.34659e-09 -2.22167 -0.733487 0.20892 -2.03217e-16 0.0 -3.88251e-19 -5.26481 -19.5321 -0.256382 -0.0379206 14.5407 0.18259 -0.972182 -0.832179 -5.94147 2.03217e-16 0.0 3.88251e-19 6.67189 -23.5615 3.10179 0.00274055 21.3467 -0.374475 0.248834 -4.74689 0.304675
-31.2703 81.8463 9.7222 -95.6326 86.2872 -77.9777 1.03636 6.42148 2.51854 3.9658 0.275176 0.811919 1.9397 -0.835901 -1.49127 -7.10182 22.4753 0.831858 -0.0 0.0 0.0 -0.0 0.0 0.0 8.94963e-14 1.21999e-12 2.15557e-15 67.5992 21.6611 25.9031 -8.00065 -3.22124 13.8957 -0.661334 -25.2099 -3.73122 -6.24357e-10 -1.01672e-09 -1.86981e-09 -1.04113e-09 -1.7528e-09 -3.23899e-09 -6.24354e-10 -1.01672e-09 -1.86982e-09 7.73091 5.47488 0.417314 -6.24355e-10 -1.01672e-09 -1.8698e-09 2.90554 0.965183 0.102902 -6.24349e-10 -1.01672e-09 -1.86981e-09 10.2786 0.731801 0.0259123 -6.2436e-10 -1.01672e-09 -1.86981e-09 2.22167 -0.733487 -0.20892 8.95385e-14 1.21999e-12 1.85041e-15 -42.1145 56.8737 -47.6088 10.938 -5.13526 -19.1015 1.55702 -36.7488 5.81085 -1.33048e-09 -1.55239e-09 1.95303e-09 -2.35507e-09 -2.63785e-09 3.31995e-09 -1.33048e-09 -1.55239e-09 1.95305e-09 -7.73091 5.47488 -0.417314 -1.33047e-09 -1.55238e-09 1.95303e-09 -2.90554 0.965183 -0.102902 -1.33048e-09 -1.55238e-09 1.95303e-09 -10.2786 0.731801 -0.0259123 -1.33047e-09 -1.55238e-09 1.95303e-09 -2.22167 -0.733487 0.20892 -2.03217e-16 0.0 -3.88251e-19 -7.44021 -27.5988 -0.398103 -0.104633 22.1542 0.316234 -1.52756 -3.05584 -8.71941 2.03217e-16 0.0 3.88251e-19 11.1812 -31.3445 4.77941 0.0666629 28.282 -0.542262 0.140263 -7.04056 0.477921
